<svg width="512" height="512" viewBox="0 0 512 512" fill="none" xmlns="http://www.w3.org/2000/svg">
<path fill-rule="evenodd" clip-rule="evenodd" d="M256 512C114.373 512 0 397.627 0 256C0 114.373 114.373 0 256 0C397.627 0 512 114.373 512 256C512 397.474 397.627 512 256 512ZM392.881 217.722H342.66V293.512H392.881C413.857 293.512 431.005 276.21 431.005 255.387C431.005 234.564 413.857 217.722 392.881 217.722ZM91 158C85.4771 158 81 162.477 81 168V344C81 349.523 85.4772 354 91 354H299C304.523 354 309 349.523 309 344V168C309 162.477 304.523 158 299 158H91ZM216 272C213.239 272 211 274.239 211 277V317C211 319.761 213.239 322 216 322H272C274.761 322 277 319.761 277 317V277C277 274.239 274.761 272 272 272H216ZM211 195C211 192.239 213.239 190 216 190H272C274.761 190 277 192.239 277 195V235C277 237.761 274.761 240 272 240H216C213.239 240 211 237.761 211 235V195ZM118 272C115.239 272 113 274.239 113 277V317C113 319.761 115.239 322 118 322H174C176.761 322 179 319.761 179 317V277C179 274.239 176.761 272 174 272H118ZM113 195C113 192.239 115.239 190 118 190H174C176.761 190 179 192.239 179 195V235C179 237.761 176.761 240 174 240H118C115.239 240 113 237.761 113 235V195Z" fill="#004DBF"/>
</svg>
