<svg width="192" height="192" viewBox="0 0 192 192" fill="none" xmlns="http://www.w3.org/2000/svg">
<path fill-rule="evenodd" clip-rule="evenodd" d="M96 192C42.8899 192 0 149.11 0 96C0 42.8899 42.8899 0 96 0C149.11 0 192 42.8899 192 96C192 149.053 149.11 192 96 192ZM147.33 81.6459H128.498V110.067H147.33C155.196 110.067 161.627 103.579 161.627 95.7703C161.627 87.9617 155.196 81.6459 147.33 81.6459ZM36.7463 132.057H120V59.7129H36.7463V132.057ZM83.5494 82.8127V70.1486H109.768V82.8127H83.5494ZM83.5494 102.888V90.7882L109.768 90.7278V102.888H83.5494ZM83.5494 121.803V110.601L109.768 110.541V121.803H83.5494ZM73.2571 110.541V121.743H47.0486V110.541H73.2571ZM73.2571 90.7278V102.757L47.0486 102.817V90.7278H73.2571ZM73.2571 70.1486V82.9438L47.0486 82.8127V70.1486H73.2571Z" fill="#23A566"/>
</svg>
